<svg width="1641" height="106" viewBox="0 0 1641 106" fill="none" xmlns="http://www.w3.org/2000/svg">
<path d="M1554.51 58.1965C1553.21 58.1965 1552.03 57.9725 1550.98 57.5245C1549.94 57.0578 1549.12 56.4045 1548.52 55.5645C1547.92 54.7245 1547.62 53.7445 1547.62 52.6245H1551.04C1551.11 53.4645 1551.44 54.1552 1552.02 54.6965C1552.62 55.2378 1553.45 55.5085 1554.51 55.5085C1555.61 55.5085 1556.47 55.2472 1557.09 54.7245C1557.7 54.1832 1558.01 53.4925 1558.01 52.6525C1558.01 51.9992 1557.82 51.4672 1557.42 51.0565C1557.05 50.6458 1556.57 50.3285 1556 50.1045C1555.44 49.8805 1554.65 49.6378 1553.64 49.3765C1552.37 49.0405 1551.34 48.7045 1550.54 48.3685C1549.75 48.0138 1549.08 47.4725 1548.52 46.7445C1547.96 46.0165 1547.68 45.0458 1547.68 43.8325C1547.68 42.7125 1547.96 41.7325 1548.52 40.8925C1549.08 40.0525 1549.86 39.4085 1550.87 38.9605C1551.88 38.5125 1553.05 38.2885 1554.37 38.2885C1556.26 38.2885 1557.8 38.7645 1558.99 39.7165C1560.21 40.6498 1560.88 41.9378 1561.01 43.5805H1557.48C1557.42 42.8712 1557.09 42.2645 1556.47 41.7605C1555.86 41.2565 1555.04 41.0045 1554.04 41.0045C1553.12 41.0045 1552.37 41.2378 1551.8 41.7045C1551.22 42.1712 1550.93 42.8432 1550.93 43.7205C1550.93 44.3178 1551.11 44.8125 1551.46 45.2045C1551.83 45.5778 1552.3 45.8765 1552.86 46.1005C1553.42 46.3245 1554.19 46.5672 1555.16 46.8285C1556.44 47.1832 1557.49 47.5378 1558.29 47.8925C1559.11 48.2472 1559.8 48.7978 1560.36 49.5445C1560.94 50.2725 1561.23 51.2525 1561.23 52.4845C1561.23 53.4738 1560.96 54.4072 1560.42 55.2845C1559.9 56.1618 1559.12 56.8712 1558.1 57.4125C1557.09 57.9352 1555.89 58.1965 1554.51 58.1965ZM1566.62 40.5285C1566.04 40.5285 1565.56 40.3325 1565.17 39.9405C1564.77 39.5485 1564.58 39.0632 1564.58 38.4845C1564.58 37.9058 1564.77 37.4205 1565.17 37.0285C1565.56 36.6365 1566.04 36.4405 1566.62 36.4405C1567.18 36.4405 1567.66 36.6365 1568.05 37.0285C1568.44 37.4205 1568.64 37.9058 1568.64 38.4845C1568.64 39.0632 1568.44 39.5485 1568.05 39.9405C1567.66 40.3325 1567.18 40.5285 1566.62 40.5285ZM1568.19 42.5725V58.0005H1565V42.5725H1568.19ZM1578.6 42.3205C1579.79 42.3205 1580.85 42.5632 1581.76 43.0485C1582.69 43.5152 1583.42 44.1032 1583.95 44.8125V42.5725H1587.17V58.2525C1587.17 59.6712 1586.87 60.9312 1586.27 62.0325C1585.67 63.1525 1584.8 64.0298 1583.67 64.6645C1582.55 65.2992 1581.2 65.6165 1579.63 65.6165C1577.54 65.6165 1575.81 65.1218 1574.43 64.1325C1573.04 63.1618 1572.26 61.8365 1572.07 60.1565H1575.24C1575.48 60.9592 1575.99 61.6032 1576.78 62.0885C1577.58 62.5925 1578.53 62.8445 1579.63 62.8445C1580.92 62.8445 1581.96 62.4525 1582.74 61.6685C1583.54 60.8845 1583.95 59.7458 1583.95 58.2525V55.6765C1583.4 56.4045 1582.67 57.0205 1581.73 57.5245C1580.82 58.0098 1579.77 58.2525 1578.6 58.2525C1577.25 58.2525 1576.02 57.9165 1574.9 57.2445C1573.8 56.5538 1572.92 55.6018 1572.27 54.3885C1571.63 53.1565 1571.32 51.7658 1571.32 50.2165C1571.32 48.6672 1571.63 47.2952 1572.27 46.1005C1572.92 44.9058 1573.8 43.9818 1574.9 43.3285C1576.02 42.6565 1577.25 42.3205 1578.6 42.3205ZM1583.95 50.2725C1583.95 49.2085 1583.72 48.2845 1583.27 47.5005C1582.84 46.7165 1582.27 46.1192 1581.57 45.7085C1580.86 45.2978 1580.09 45.0925 1579.27 45.0925C1578.45 45.0925 1577.68 45.2978 1576.97 45.7085C1576.26 46.1005 1575.69 46.6885 1575.24 47.4725C1574.81 48.2378 1574.59 49.1525 1574.59 50.2165C1574.59 51.2805 1574.81 52.2138 1575.24 53.0165C1575.69 53.8192 1576.26 54.4352 1576.97 54.8645C1577.7 55.2752 1578.47 55.4805 1579.27 55.4805C1580.09 55.4805 1580.86 55.2752 1581.57 54.8645C1582.27 54.4538 1582.84 53.8565 1583.27 53.0725C1583.72 52.2698 1583.95 51.3365 1583.95 50.2725ZM1599.14 42.3205C1600.36 42.3205 1601.44 42.5725 1602.39 43.0765C1603.36 43.5805 1604.12 44.3272 1604.66 45.3165C1605.2 46.3058 1605.47 47.5005 1605.47 48.9005V58.0005H1602.31V49.3765C1602.31 47.9952 1601.96 46.9405 1601.27 46.2125C1600.58 45.4658 1599.64 45.0925 1598.44 45.0925C1597.25 45.0925 1596.3 45.4658 1595.59 46.2125C1594.9 46.9405 1594.55 47.9952 1594.55 49.3765V58.0005H1591.36V42.5725H1594.55V44.3365C1595.07 43.7018 1595.74 43.2072 1596.54 42.8525C1597.36 42.4978 1598.23 42.3205 1599.14 42.3205ZM1618.44 40.5285C1617.86 40.5285 1617.37 40.3325 1616.98 39.9405C1616.59 39.5485 1616.39 39.0632 1616.39 38.4845C1616.39 37.9058 1616.59 37.4205 1616.98 37.0285C1617.37 36.6365 1617.86 36.4405 1618.44 36.4405C1619 36.4405 1619.47 36.6365 1619.87 37.0285C1620.26 37.4205 1620.45 37.9058 1620.45 38.4845C1620.45 39.0632 1620.26 39.5485 1619.87 39.9405C1619.47 40.3325 1619 40.5285 1618.44 40.5285ZM1620.01 42.5725V58.0005H1616.81V42.5725H1620.01ZM1631.98 42.3205C1633.19 42.3205 1634.28 42.5725 1635.23 43.0765C1636.2 43.5805 1636.96 44.3272 1637.5 45.3165C1638.04 46.3058 1638.31 47.5005 1638.31 48.9005V58.0005H1635.15V49.3765C1635.15 47.9952 1634.8 46.9405 1634.11 46.2125C1633.42 45.4658 1632.48 45.0925 1631.28 45.0925C1630.09 45.0925 1629.13 45.4658 1628.43 46.2125C1627.73 46.9405 1627.39 47.9952 1627.39 49.3765V58.0005H1624.2V42.5725H1627.39V44.3365C1627.91 43.7018 1628.57 43.2072 1629.38 42.8525C1630.2 42.4978 1631.07 42.3205 1631.98 42.3205Z" fill="#707070"/>
<path d="M1178.83 54.0245H1170.68L1169.28 58.0005H1165.95L1172.92 38.5125H1176.62L1183.59 58.0005H1180.23L1178.83 54.0245ZM1177.94 51.4205L1174.77 42.3765L1171.58 51.4205H1177.94ZM1189.82 44.8685C1190.36 44.1218 1191.09 43.5152 1192.03 43.0485C1192.98 42.5632 1194.03 42.3205 1195.19 42.3205C1196.55 42.3205 1197.79 42.6472 1198.89 43.3005C1199.99 43.9538 1200.86 44.8872 1201.49 46.1005C1202.13 47.2952 1202.44 48.6672 1202.44 50.2165C1202.44 51.7658 1202.13 53.1565 1201.49 54.3885C1200.86 55.6018 1199.98 56.5538 1198.86 57.2445C1197.76 57.9165 1196.54 58.2525 1195.19 58.2525C1194 58.2525 1192.93 58.0192 1192 57.5525C1191.08 57.0858 1190.36 56.4885 1189.82 55.7605V58.0005H1186.62V37.2805H1189.82V44.8685ZM1199.2 50.2165C1199.2 49.1525 1198.97 48.2378 1198.52 47.4725C1198.09 46.6885 1197.52 46.1005 1196.79 45.7085C1196.08 45.2978 1195.31 45.0925 1194.49 45.0925C1193.69 45.0925 1192.92 45.2978 1192.2 45.7085C1191.49 46.1192 1190.91 46.7165 1190.46 47.5005C1190.03 48.2845 1189.82 49.2085 1189.82 50.2725C1189.82 51.3365 1190.03 52.2698 1190.46 53.0725C1190.91 53.8565 1191.49 54.4538 1192.2 54.8645C1192.92 55.2752 1193.69 55.4805 1194.49 55.4805C1195.31 55.4805 1196.08 55.2752 1196.79 54.8645C1197.52 54.4352 1198.09 53.8192 1198.52 53.0165C1198.97 52.2138 1199.2 51.2805 1199.2 50.2165ZM1212.29 58.2525C1210.84 58.2525 1209.52 57.9258 1208.34 57.2725C1207.17 56.6005 1206.24 55.6672 1205.57 54.4725C1204.9 53.2592 1204.56 51.8592 1204.56 50.2725C1204.56 48.7045 1204.91 47.3138 1205.6 46.1005C1206.29 44.8872 1207.23 43.9538 1208.43 43.3005C1209.62 42.6472 1210.96 42.3205 1212.43 42.3205C1213.91 42.3205 1215.24 42.6472 1216.44 43.3005C1217.63 43.9538 1218.57 44.8872 1219.26 46.1005C1219.95 47.3138 1220.3 48.7045 1220.3 50.2725C1220.3 51.8405 1219.95 53.2312 1219.24 54.4445C1218.53 55.6578 1217.56 56.6005 1216.32 57.2725C1215.11 57.9258 1213.77 58.2525 1212.29 58.2525ZM1212.29 55.4805C1213.11 55.4805 1213.88 55.2845 1214.59 54.8925C1215.32 54.5005 1215.9 53.9125 1216.35 53.1285C1216.8 52.3445 1217.02 51.3925 1217.02 50.2725C1217.02 49.1525 1216.81 48.2098 1216.38 47.4445C1215.95 46.6605 1215.38 46.0725 1214.67 45.6805C1213.96 45.2885 1213.2 45.0925 1212.38 45.0925C1211.55 45.0925 1210.79 45.2885 1210.08 45.6805C1209.39 46.0725 1208.84 46.6605 1208.43 47.4445C1208.02 48.2098 1207.81 49.1525 1207.81 50.2725C1207.81 51.9338 1208.23 53.2218 1209.07 54.1365C1209.93 55.0325 1211 55.4805 1212.29 55.4805ZM1237.43 42.5725V58.0005H1234.24V56.1805C1233.73 56.8152 1233.07 57.3192 1232.25 57.6925C1231.44 58.0472 1230.59 58.2245 1229.67 58.2245C1228.46 58.2245 1227.37 57.9725 1226.4 57.4685C1225.44 56.9645 1224.69 56.2178 1224.13 55.2285C1223.59 54.2392 1223.32 53.0445 1223.32 51.6445V42.5725H1226.48V51.1685C1226.48 52.5498 1226.82 53.6138 1227.52 54.3605C1228.21 55.0885 1229.15 55.4525 1230.34 55.4525C1231.54 55.4525 1232.48 55.0885 1233.17 54.3605C1233.88 53.6138 1234.24 52.5498 1234.24 51.1685V42.5725H1237.43ZM1245.36 45.1765V53.7165C1245.36 54.2952 1245.49 54.7152 1245.76 54.9765C1246.04 55.2192 1246.5 55.3405 1247.16 55.3405H1249.12V58.0005H1246.6C1245.16 58.0005 1244.06 57.6645 1243.29 56.9925C1242.53 56.3205 1242.14 55.2285 1242.14 53.7165V45.1765H1240.32V42.5725H1242.14V38.7365H1245.36V42.5725H1249.12V45.1765H1245.36Z" fill="#707070"/>
<path d="M1311.71 44.3365C1311.71 45.3258 1311.47 46.2592 1311.01 47.1365C1310.54 48.0138 1309.79 48.7325 1308.77 49.2925C1307.74 49.8338 1306.43 50.1045 1304.82 50.1045H1301.29V58.0005H1298.1V38.5405H1304.82C1306.31 38.5405 1307.57 38.8018 1308.6 39.3245C1309.65 39.8285 1310.42 40.5192 1310.92 41.3965C1311.45 42.2738 1311.71 43.2538 1311.71 44.3365ZM1304.82 47.5005C1306.03 47.5005 1306.94 47.2298 1307.54 46.6885C1308.13 46.1285 1308.43 45.3445 1308.43 44.3365C1308.43 42.2085 1307.23 41.1445 1304.82 41.1445H1301.29V47.5005H1304.82ZM1317.94 44.8125C1318.41 44.0285 1319.03 43.4218 1319.79 42.9925C1320.58 42.5445 1321.5 42.3205 1322.56 42.3205V45.6245H1321.75C1320.5 45.6245 1319.55 45.9418 1318.9 46.5765C1318.26 47.2112 1317.94 48.3125 1317.94 49.8805V58.0005H1314.75V42.5725H1317.94V44.8125ZM1327.12 40.5285C1326.54 40.5285 1326.06 40.3325 1325.67 39.9405C1325.27 39.5485 1325.08 39.0632 1325.08 38.4845C1325.08 37.9058 1325.27 37.4205 1325.67 37.0285C1326.06 36.6365 1326.54 36.4405 1327.12 36.4405C1327.68 36.4405 1328.16 36.6365 1328.55 37.0285C1328.94 37.4205 1329.14 37.9058 1329.14 38.4845C1329.14 39.0632 1328.94 39.5485 1328.55 39.9405C1328.16 40.3325 1327.68 40.5285 1327.12 40.5285ZM1328.69 42.5725V58.0005H1325.5V42.5725H1328.69ZM1331.82 50.2725C1331.82 48.6858 1332.13 47.2952 1332.77 46.1005C1333.42 44.8872 1334.32 43.9538 1335.46 43.3005C1336.6 42.6472 1337.9 42.3205 1339.38 42.3205C1341.24 42.3205 1342.78 42.7685 1344 43.6645C1345.23 44.5418 1346.06 45.8018 1346.49 47.4445H1343.05C1342.77 46.6792 1342.32 46.0818 1341.7 45.6525C1341.09 45.2232 1340.31 45.0085 1339.38 45.0085C1338.07 45.0085 1337.03 45.4752 1336.24 46.4085C1335.48 47.3232 1335.09 48.6112 1335.09 50.2725C1335.09 51.9338 1335.48 53.2312 1336.24 54.1645C1337.03 55.0978 1338.07 55.5645 1339.38 55.5645C1341.23 55.5645 1342.45 54.7525 1343.05 53.1285H1346.49C1346.04 54.6965 1345.2 55.9472 1343.97 56.8805C1342.74 57.7952 1341.21 58.2525 1339.38 58.2525C1337.9 58.2525 1336.6 57.9258 1335.46 57.2725C1334.32 56.6005 1333.42 55.6672 1332.77 54.4725C1332.13 53.2592 1331.82 51.8592 1331.82 50.2725ZM1351.29 40.5285C1350.72 40.5285 1350.23 40.3325 1349.84 39.9405C1349.45 39.5485 1349.25 39.0632 1349.25 38.4845C1349.25 37.9058 1349.45 37.4205 1349.84 37.0285C1350.23 36.6365 1350.72 36.4405 1351.29 36.4405C1351.85 36.4405 1352.33 36.6365 1352.72 37.0285C1353.11 37.4205 1353.31 37.9058 1353.31 38.4845C1353.31 39.0632 1353.11 39.5485 1352.72 39.9405C1352.33 40.3325 1351.85 40.5285 1351.29 40.5285ZM1352.86 42.5725V58.0005H1349.67V42.5725H1352.86ZM1364.84 42.3205C1366.05 42.3205 1367.13 42.5725 1368.09 43.0765C1369.06 43.5805 1369.81 44.3272 1370.35 45.3165C1370.89 46.3058 1371.17 47.5005 1371.17 48.9005V58.0005H1368V49.3765C1368 47.9952 1367.66 46.9405 1366.97 46.2125C1366.27 45.4658 1365.33 45.0925 1364.14 45.0925C1362.94 45.0925 1361.99 45.4658 1361.28 46.2125C1360.59 46.9405 1360.25 47.9952 1360.25 49.3765V58.0005H1357.05V42.5725H1360.25V44.3365C1360.77 43.7018 1361.43 43.2072 1362.23 42.8525C1363.05 42.4978 1363.92 42.3205 1364.84 42.3205ZM1381.45 42.3205C1382.65 42.3205 1383.7 42.5632 1384.62 43.0485C1385.55 43.5152 1386.28 44.1032 1386.8 44.8125V42.5725H1390.02V58.2525C1390.02 59.6712 1389.72 60.9312 1389.12 62.0325C1388.53 63.1525 1387.66 64.0298 1386.52 64.6645C1385.4 65.2992 1384.06 65.6165 1382.49 65.6165C1380.4 65.6165 1378.66 65.1218 1377.28 64.1325C1375.9 63.1618 1375.12 61.8365 1374.93 60.1565H1378.09C1378.34 60.9592 1378.85 61.6032 1379.63 62.0885C1380.44 62.5925 1381.39 62.8445 1382.49 62.8445C1383.78 62.8445 1384.81 62.4525 1385.6 61.6685C1386.4 60.8845 1386.8 59.7458 1386.8 58.2525V55.6765C1386.26 56.4045 1385.52 57.0205 1384.59 57.5245C1383.67 58.0098 1382.63 58.2525 1381.45 58.2525C1380.11 58.2525 1378.88 57.9165 1377.76 57.2445C1376.66 56.5538 1375.78 55.6018 1375.12 54.3885C1374.49 53.1565 1374.17 51.7658 1374.17 50.2165C1374.17 48.6672 1374.49 47.2952 1375.12 46.1005C1375.78 44.9058 1376.66 43.9818 1377.76 43.3285C1378.88 42.6565 1380.11 42.3205 1381.45 42.3205ZM1386.8 50.2725C1386.8 49.2085 1386.58 48.2845 1386.13 47.5005C1385.7 46.7165 1385.13 46.1192 1384.42 45.7085C1383.71 45.2978 1382.95 45.0925 1382.12 45.0925C1381.3 45.0925 1380.54 45.2978 1379.83 45.7085C1379.12 46.1005 1378.54 46.6885 1378.09 47.4725C1377.66 48.2378 1377.45 49.1525 1377.45 50.2165C1377.45 51.2805 1377.66 52.2138 1378.09 53.0165C1378.54 53.8192 1379.12 54.4352 1379.83 54.8645C1380.56 55.2752 1381.32 55.4805 1382.12 55.4805C1382.95 55.4805 1383.71 55.2752 1384.42 54.8645C1385.13 54.4538 1385.7 53.8565 1386.13 53.0725C1386.58 52.2698 1386.8 51.3365 1386.8 50.2725Z" fill="#326DF9"/>
<path d="M1447.52 48.0045C1448.56 48.1912 1449.45 48.7418 1450.18 49.6565C1450.9 50.5712 1451.27 51.6072 1451.27 52.7645C1451.27 53.7538 1451.01 54.6498 1450.48 55.4525C1449.98 56.2365 1449.24 56.8618 1448.27 57.3285C1447.3 57.7765 1446.17 58.0005 1444.88 58.0005H1437.1V38.5405H1444.52C1445.85 38.5405 1446.98 38.7645 1447.94 39.2125C1448.89 39.6605 1449.61 40.2672 1450.09 41.0325C1450.58 41.7792 1450.82 42.6192 1450.82 43.5525C1450.82 44.6725 1450.52 45.6058 1449.92 46.3525C1449.33 47.0992 1448.52 47.6498 1447.52 48.0045ZM1440.29 46.7165H1444.24C1445.29 46.7165 1446.1 46.4832 1446.68 46.0165C1447.27 45.5312 1447.57 44.8405 1447.57 43.9445C1447.57 43.0672 1447.27 42.3858 1446.68 41.9005C1446.1 41.3965 1445.29 41.1445 1444.24 41.1445H1440.29V46.7165ZM1444.6 55.3965C1445.69 55.3965 1446.54 55.1352 1447.15 54.6125C1447.77 54.0898 1448.08 53.3618 1448.08 52.4285C1448.08 51.4765 1447.75 50.7205 1447.1 50.1605C1446.44 49.6005 1445.57 49.3205 1444.49 49.3205H1440.29V55.3965H1444.6ZM1457.93 37.2805V58.0005H1454.74V37.2805H1457.93ZM1468.81 58.2525C1467.36 58.2525 1466.04 57.9258 1464.86 57.2725C1463.69 56.6005 1462.76 55.6672 1462.09 54.4725C1461.42 53.2592 1461.08 51.8592 1461.08 50.2725C1461.08 48.7045 1461.43 47.3138 1462.12 46.1005C1462.81 44.8872 1463.75 43.9538 1464.95 43.3005C1466.14 42.6472 1467.48 42.3205 1468.95 42.3205C1470.43 42.3205 1471.76 42.6472 1472.96 43.3005C1474.15 43.9538 1475.09 44.8872 1475.78 46.1005C1476.47 47.3138 1476.82 48.7045 1476.82 50.2725C1476.82 51.8405 1476.46 53.2312 1475.76 54.4445C1475.05 55.6578 1474.08 56.6005 1472.84 57.2725C1471.63 57.9258 1470.29 58.2525 1468.81 58.2525ZM1468.81 55.4805C1469.63 55.4805 1470.4 55.2845 1471.11 54.8925C1471.84 54.5005 1472.42 53.9125 1472.87 53.1285C1473.32 52.3445 1473.54 51.3925 1473.54 50.2725C1473.54 49.1525 1473.33 48.2098 1472.9 47.4445C1472.47 46.6605 1471.9 46.0725 1471.19 45.6805C1470.48 45.2885 1469.72 45.0925 1468.9 45.0925C1468.07 45.0925 1467.31 45.2885 1466.6 45.6805C1465.91 46.0725 1465.36 46.6605 1464.95 47.4445C1464.54 48.2098 1464.33 49.1525 1464.33 50.2725C1464.33 51.9338 1464.75 53.2218 1465.59 54.1365C1466.45 55.0325 1467.52 55.4805 1468.81 55.4805ZM1486.19 42.3205C1487.39 42.3205 1488.44 42.5632 1489.36 43.0485C1490.29 43.5152 1491.02 44.1032 1491.54 44.8125V42.5725H1494.76V58.2525C1494.76 59.6712 1494.46 60.9312 1493.86 62.0325C1493.27 63.1525 1492.4 64.0298 1491.26 64.6645C1490.14 65.2992 1488.8 65.6165 1487.23 65.6165C1485.14 65.6165 1483.4 65.1218 1482.02 64.1325C1480.64 63.1618 1479.85 61.8365 1479.67 60.1565H1482.83C1483.07 60.9592 1483.59 61.6032 1484.37 62.0885C1485.17 62.5925 1486.13 62.8445 1487.23 62.8445C1488.52 62.8445 1489.55 62.4525 1490.34 61.6685C1491.14 60.8845 1491.54 59.7458 1491.54 58.2525V55.6765C1491 56.4045 1490.26 57.0205 1489.33 57.5245C1488.41 58.0098 1487.37 58.2525 1486.19 58.2525C1484.85 58.2525 1483.62 57.9165 1482.5 57.2445C1481.39 56.5538 1480.52 55.6018 1479.86 54.3885C1479.23 53.1565 1478.91 51.7658 1478.91 50.2165C1478.91 48.6672 1479.23 47.2952 1479.86 46.1005C1480.52 44.9058 1481.39 43.9818 1482.5 43.3285C1483.62 42.6565 1484.85 42.3205 1486.19 42.3205ZM1491.54 50.2725C1491.54 49.2085 1491.32 48.2845 1490.87 47.5005C1490.44 46.7165 1489.87 46.1192 1489.16 45.7085C1488.45 45.2978 1487.68 45.0925 1486.86 45.0925C1486.04 45.0925 1485.28 45.2978 1484.57 45.7085C1483.86 46.1005 1483.28 46.6885 1482.83 47.4725C1482.4 48.2378 1482.19 49.1525 1482.19 50.2165C1482.19 51.2805 1482.4 52.2138 1482.83 53.0165C1483.28 53.8192 1483.86 54.4352 1484.57 54.8645C1485.3 55.2752 1486.06 55.4805 1486.86 55.4805C1487.68 55.4805 1488.45 55.2752 1489.16 54.8645C1489.87 54.4538 1490.44 53.8565 1490.87 53.0725C1491.32 52.2698 1491.54 51.3365 1491.54 50.2725Z" fill="#707070"/>
<path d="M3.348 77.8015C2.88 77.8015 2.484 77.6395 2.16 77.3155C1.836 76.9915 1.674 76.5955 1.674 76.1275C1.674 75.6595 1.836 75.2635 2.16 74.9395C2.484 74.6155 2.88 74.4535 3.348 74.4535C3.798 74.4535 4.176 74.6155 4.482 74.9395C4.806 75.2635 4.968 75.6595 4.968 76.1275C4.968 76.5955 4.806 76.9915 4.482 77.3155C4.176 77.6395 3.798 77.8015 3.348 77.8015ZM4.536 80.2045V95.0005H2.079V80.2045H4.536ZM15.9325 79.9345C17.7325 79.9345 19.1905 80.4835 20.3065 81.5815C21.4225 82.6615 21.9805 84.2275 21.9805 86.2795V95.0005H19.5505V86.6305C19.5505 85.1545 19.1815 84.0295 18.4435 83.2555C17.7055 82.4635 16.6975 82.0675 15.4195 82.0675C14.1235 82.0675 13.0885 82.4725 12.3145 83.2825C11.5585 84.0925 11.1805 85.2715 11.1805 86.8195V95.0005H8.72353V80.2045H11.1805V82.3105C11.6665 81.5545 12.3235 80.9695 13.1515 80.5555C13.9975 80.1415 14.9245 79.9345 15.9325 79.9345ZM32.015 82.2295H28.91V95.0005H26.453V82.2295H24.536V80.2045H26.453V79.1515C26.453 77.4955 26.876 76.2895 27.722 75.5335C28.586 74.7595 29.963 74.3725 31.853 74.3725V76.4245C30.773 76.4245 30.008 76.6405 29.558 77.0725C29.126 77.4865 28.91 78.1795 28.91 79.1515V80.2045H32.015V82.2295ZM41.3328 95.2435C39.9468 95.2435 38.6868 94.9285 37.5528 94.2985C36.4368 93.6685 35.5548 92.7775 34.9068 91.6255C34.2768 90.4555 33.9618 89.1055 33.9618 87.5755C33.9618 86.0635 34.2858 84.7315 34.9338 83.5795C35.5998 82.4095 36.4998 81.5185 37.6338 80.9065C38.7678 80.2765 40.0368 79.9615 41.4408 79.9615C42.8448 79.9615 44.1138 80.2765 45.2478 80.9065C46.3818 81.5185 47.2728 82.4005 47.9208 83.5525C48.5868 84.7045 48.9198 86.0455 48.9198 87.5755C48.9198 89.1055 48.5778 90.4555 47.8938 91.6255C47.2278 92.7775 46.3188 93.6685 45.1668 94.2985C44.0148 94.9285 42.7368 95.2435 41.3328 95.2435ZM41.3328 93.0835C42.2148 93.0835 43.0428 92.8765 43.8168 92.4625C44.5908 92.0485 45.2118 91.4275 45.6798 90.5995C46.1658 89.7715 46.4088 88.7635 46.4088 87.5755C46.4088 86.3875 46.1748 85.3795 45.7068 84.5515C45.2388 83.7235 44.6268 83.1115 43.8708 82.7155C43.1148 82.3015 42.2958 82.0945 41.4138 82.0945C40.5138 82.0945 39.6858 82.3015 38.9298 82.7155C38.1918 83.1115 37.5978 83.7235 37.1478 84.5515C36.6978 85.3795 36.4728 86.3875 36.4728 87.5755C36.4728 88.7815 36.6888 89.7985 37.1208 90.6265C37.5708 91.4545 38.1648 92.0755 38.9028 92.4895C39.6408 92.8855 40.4508 93.0835 41.3328 93.0835ZM65.6503 77.6935C67.6483 77.6935 69.3853 78.0715 70.8613 78.8275C72.3373 79.5835 73.4713 80.6455 74.2633 82.0135C75.0553 83.3635 75.4513 84.9295 75.4513 86.7115C75.4513 88.1335 75.2173 89.5015 74.7493 90.8155C74.2813 92.1115 73.5973 93.1645 72.6973 93.9745C71.8153 94.7845 70.7803 95.1895 69.5923 95.1895C68.6923 95.1895 67.9993 94.9645 67.5133 94.5145C67.0273 94.0645 66.7483 93.4525 66.6763 92.6785C66.1183 93.4525 65.4073 94.0645 64.5433 94.5145C63.6973 94.9645 62.7973 95.1895 61.8433 95.1895C60.4753 95.1895 59.3953 94.7755 58.6033 93.9475C57.8293 93.1015 57.4423 91.9675 57.4423 90.5455C57.4423 89.1955 57.7213 87.9355 58.2793 86.7655C58.8553 85.5955 59.6473 84.6595 60.6553 83.9575C61.6633 83.2375 62.8063 82.8775 64.0843 82.8775C65.7943 82.8775 66.9463 83.5255 67.5403 84.8215L67.8373 83.1475H69.9703L68.6203 90.9505C68.5663 91.2925 68.5393 91.6075 68.5393 91.8955C68.5393 92.9755 69.0163 93.5155 69.9703 93.5155C70.6903 93.5155 71.3113 93.1735 71.8333 92.4895C72.3733 91.8055 72.7783 90.9505 73.0483 89.9245C73.3183 88.8805 73.4533 87.8545 73.4533 86.8465C73.4533 84.4885 72.7423 82.6615 71.3203 81.3655C69.9163 80.0695 67.9273 79.4215 65.3533 79.4215C63.2113 79.4215 61.2763 79.9435 59.5483 80.9875C57.8383 82.0135 56.4973 83.4265 55.5253 85.2265C54.5533 87.0265 54.0673 89.0155 54.0673 91.1935C54.0493 93.5695 54.7603 95.3965 56.2003 96.6745C57.6403 97.9705 59.6383 98.6185 62.1943 98.6185C63.8863 98.6185 65.3803 98.3125 66.6763 97.7005L67.0003 99.3745C65.3983 100.04 63.6343 100.373 61.7083 100.373C59.7823 100.373 58.0813 100.004 56.6053 99.2665C55.1473 98.5465 54.0133 97.5025 53.2033 96.1345C52.4113 94.7845 52.0153 93.2095 52.0153 91.4095C52.0153 88.8715 52.6003 86.5585 53.7703 84.4705C54.9403 82.3645 56.5603 80.7085 58.6303 79.5025C60.7183 78.2965 63.0583 77.6935 65.6503 77.6935ZM62.5723 93.2725C63.3823 93.2725 64.1293 93.0385 64.8133 92.5705C65.4973 92.0845 66.0373 91.4365 66.4333 90.6265C66.8293 89.7985 67.0273 88.8985 67.0273 87.9265C67.0273 86.9905 66.7663 86.2345 66.2443 85.6585C65.7403 85.0645 65.0203 84.7675 64.0843 84.7675C63.2203 84.7675 62.4553 85.0285 61.7893 85.5505C61.1413 86.0545 60.6373 86.7295 60.2773 87.5755C59.9173 88.4035 59.7373 89.2675 59.7373 90.1675C59.7373 91.1215 59.9803 91.8775 60.4663 92.4355C60.9523 92.9935 61.6543 93.2725 62.5723 93.2725ZM97.2861 79.9345C98.4381 79.9345 99.4641 80.1775 100.364 80.6635C101.264 81.1315 101.975 81.8425 102.497 82.7965C103.019 83.7505 103.28 84.9115 103.28 86.2795V95.0005H100.85V86.6305C100.85 85.1545 100.481 84.0295 99.7431 83.2555C99.0231 82.4635 98.0421 82.0675 96.8001 82.0675C95.5221 82.0675 94.5051 82.4815 93.7491 83.3095C92.9931 84.1195 92.6151 85.2985 92.6151 86.8465V95.0005H90.1851V86.6305C90.1851 85.1545 89.8161 84.0295 89.0781 83.2555C88.3581 82.4635 87.3771 82.0675 86.1351 82.0675C84.8571 82.0675 83.8401 82.4815 83.0841 83.3095C82.3281 84.1195 81.9501 85.2985 81.9501 86.8465V95.0005H79.4931V80.2045H81.9501V82.3375C82.4361 81.5635 83.0841 80.9695 83.8941 80.5555C84.7221 80.1415 85.6311 79.9345 86.6211 79.9345C87.8631 79.9345 88.9611 80.2135 89.9151 80.7715C90.8691 81.3295 91.5801 82.1485 92.0481 83.2285C92.4621 82.1845 93.1461 81.3745 94.1001 80.7985C95.0541 80.2225 96.1161 79.9345 97.2861 79.9345ZM106.392 87.5485C106.392 86.0365 106.698 84.7135 107.31 83.5795C107.922 82.4275 108.759 81.5365 109.821 80.9065C110.901 80.2765 112.098 79.9615 113.412 79.9615C114.708 79.9615 115.833 80.2405 116.787 80.7985C117.741 81.3565 118.452 82.0585 118.92 82.9045V80.2045H121.404V95.0005H118.92V92.2465C118.434 93.1105 117.705 93.8305 116.733 94.4065C115.779 94.9645 114.663 95.2435 113.385 95.2435C112.071 95.2435 110.883 94.9195 109.821 94.2715C108.759 93.6235 107.922 92.7145 107.31 91.5445C106.698 90.3745 106.392 89.0425 106.392 87.5485ZM118.92 87.5755C118.92 86.4595 118.695 85.4875 118.245 84.6595C117.795 83.8315 117.183 83.2015 116.409 82.7695C115.653 82.3195 114.816 82.0945 113.898 82.0945C112.98 82.0945 112.143 82.3105 111.387 82.7425C110.631 83.1745 110.028 83.8045 109.578 84.6325C109.128 85.4605 108.903 86.4325 108.903 87.5485C108.903 88.6825 109.128 89.6725 109.578 90.5185C110.028 91.3465 110.631 91.9855 111.387 92.4355C112.143 92.8675 112.98 93.0835 113.898 93.0835C114.816 93.0835 115.653 92.8675 116.409 92.4355C117.183 91.9855 117.795 91.3465 118.245 90.5185C118.695 89.6725 118.92 88.6915 118.92 87.5755ZM128.014 82.6075C128.446 81.7615 129.058 81.1045 129.85 80.6365C130.66 80.1685 131.641 79.9345 132.793 79.9345V82.4725H132.145C129.391 82.4725 128.014 83.9665 128.014 86.9545V95.0005H125.557V80.2045H128.014V82.6075ZM136.898 77.8015C136.43 77.8015 136.034 77.6395 135.71 77.3155C135.386 76.9915 135.224 76.5955 135.224 76.1275C135.224 75.6595 135.386 75.2635 135.71 74.9395C136.034 74.6155 136.43 74.4535 136.898 74.4535C137.348 74.4535 137.726 74.6155 138.032 74.9395C138.356 75.2635 138.518 75.6595 138.518 76.1275C138.518 76.5955 138.356 76.9915 138.032 77.3155C137.726 77.6395 137.348 77.8015 136.898 77.8015ZM138.086 80.2045V95.0005H135.629V80.2045H138.086ZM141.355 87.5755C141.355 86.0455 141.661 84.7135 142.273 83.5795C142.885 82.4275 143.731 81.5365 144.811 80.9065C145.909 80.2765 147.16 79.9615 148.564 79.9615C150.382 79.9615 151.876 80.4025 153.046 81.2845C154.234 82.1665 155.017 83.3905 155.395 84.9565H152.749C152.497 84.0565 152.002 83.3455 151.264 82.8235C150.544 82.3015 149.644 82.0405 148.564 82.0405C147.16 82.0405 146.026 82.5265 145.162 83.4985C144.298 84.4525 143.866 85.8115 143.866 87.5755C143.866 89.3575 144.298 90.7345 145.162 91.7065C146.026 92.6785 147.16 93.1645 148.564 93.1645C149.644 93.1645 150.544 92.9125 151.264 92.4085C151.984 91.9045 152.479 91.1845 152.749 90.2485H155.395C154.999 91.7605 154.207 92.9755 153.019 93.8935C151.831 94.7935 150.346 95.2435 148.564 95.2435C147.16 95.2435 145.909 94.9285 144.811 94.2985C143.731 93.6685 142.885 92.7775 142.273 91.6255C141.661 90.4735 141.355 89.1235 141.355 87.5755ZM165.127 95.2435C163.741 95.2435 162.481 94.9285 161.347 94.2985C160.231 93.6685 159.349 92.7775 158.701 91.6255C158.071 90.4555 157.756 89.1055 157.756 87.5755C157.756 86.0635 158.08 84.7315 158.728 83.5795C159.394 82.4095 160.294 81.5185 161.428 80.9065C162.562 80.2765 163.831 79.9615 165.235 79.9615C166.639 79.9615 167.908 80.2765 169.042 80.9065C170.176 81.5185 171.067 82.4005 171.715 83.5525C172.381 84.7045 172.714 86.0455 172.714 87.5755C172.714 89.1055 172.372 90.4555 171.688 91.6255C171.022 92.7775 170.113 93.6685 168.961 94.2985C167.809 94.9285 166.531 95.2435 165.127 95.2435ZM165.127 93.0835C166.009 93.0835 166.837 92.8765 167.611 92.4625C168.385 92.0485 169.006 91.4275 169.474 90.5995C169.96 89.7715 170.203 88.7635 170.203 87.5755C170.203 86.3875 169.969 85.3795 169.501 84.5515C169.033 83.7235 168.421 83.1115 167.665 82.7155C166.909 82.3015 166.09 82.0945 165.208 82.0945C164.308 82.0945 163.48 82.3015 162.724 82.7155C161.986 83.1115 161.392 83.7235 160.942 84.5515C160.492 85.3795 160.267 86.3875 160.267 87.5755C160.267 88.7815 160.483 89.7985 160.915 90.6265C161.365 91.4545 161.959 92.0755 162.697 92.4895C163.435 92.8855 164.245 93.0835 165.127 93.0835ZM176.727 95.1625C176.259 95.1625 175.863 95.0005 175.539 94.6765C175.215 94.3525 175.053 93.9565 175.053 93.4885C175.053 93.0205 175.215 92.6245 175.539 92.3005C175.863 91.9765 176.259 91.8145 176.727 91.8145C177.177 91.8145 177.555 91.9765 177.861 92.3005C178.185 92.6245 178.347 93.0205 178.347 93.4885C178.347 93.9565 178.185 94.3525 177.861 94.6765C177.555 95.0005 177.177 95.1625 176.727 95.1625ZM180.695 87.5755C180.695 86.0455 181.001 84.7135 181.613 83.5795C182.225 82.4275 183.071 81.5365 184.151 80.9065C185.249 80.2765 186.5 79.9615 187.904 79.9615C189.722 79.9615 191.216 80.4025 192.386 81.2845C193.574 82.1665 194.357 83.3905 194.735 84.9565H192.089C191.837 84.0565 191.342 83.3455 190.604 82.8235C189.884 82.3015 188.984 82.0405 187.904 82.0405C186.5 82.0405 185.366 82.5265 184.502 83.4985C183.638 84.4525 183.206 85.8115 183.206 87.5755C183.206 89.3575 183.638 90.7345 184.502 91.7065C185.366 92.6785 186.5 93.1645 187.904 93.1645C188.984 93.1645 189.884 92.9125 190.604 92.4085C191.324 91.9045 191.819 91.1845 192.089 90.2485H194.735C194.339 91.7605 193.547 92.9755 192.359 93.8935C191.171 94.7935 189.686 95.2435 187.904 95.2435C186.5 95.2435 185.249 94.9285 184.151 94.2985C183.071 93.6685 182.225 92.7775 181.613 91.6255C181.001 90.4735 180.695 89.1235 180.695 87.5755ZM204.467 95.2435C203.081 95.2435 201.821 94.9285 200.687 94.2985C199.571 93.6685 198.689 92.7775 198.041 91.6255C197.411 90.4555 197.096 89.1055 197.096 87.5755C197.096 86.0635 197.42 84.7315 198.068 83.5795C198.734 82.4095 199.634 81.5185 200.768 80.9065C201.902 80.2765 203.171 79.9615 204.575 79.9615C205.979 79.9615 207.248 80.2765 208.382 80.9065C209.516 81.5185 210.407 82.4005 211.055 83.5525C211.721 84.7045 212.054 86.0455 212.054 87.5755C212.054 89.1055 211.712 90.4555 211.028 91.6255C210.362 92.7775 209.453 93.6685 208.301 94.2985C207.149 94.9285 205.871 95.2435 204.467 95.2435ZM204.467 93.0835C205.349 93.0835 206.177 92.8765 206.951 92.4625C207.725 92.0485 208.346 91.4275 208.814 90.5995C209.3 89.7715 209.543 88.7635 209.543 87.5755C209.543 86.3875 209.309 85.3795 208.841 84.5515C208.373 83.7235 207.761 83.1115 207.005 82.7155C206.249 82.3015 205.43 82.0945 204.548 82.0945C203.648 82.0945 202.82 82.3015 202.064 82.7155C201.326 83.1115 200.732 83.7235 200.282 84.5515C199.832 85.3795 199.607 86.3875 199.607 87.5755C199.607 88.7815 199.823 89.7985 200.255 90.6265C200.705 91.4545 201.299 92.0755 202.037 92.4895C202.775 92.8855 203.585 93.0835 204.467 93.0835Z" fill="#707070"/>
<path d="M107.918 17.3905V47.0005H99.686V30.6625L94.1 47.0005H87.212L81.584 30.5365V47.0005H73.352V17.3905H83.306L90.74 36.6265L98.006 17.3905H107.918ZM111.26 35.1985C111.26 32.7625 111.694 30.6345 112.562 28.8145C113.458 26.9945 114.662 25.5945 116.174 24.6145C117.714 23.6345 119.422 23.1445 121.298 23.1445C122.922 23.1445 124.322 23.4665 125.498 24.1105C126.674 24.7545 127.584 25.6225 128.228 26.7145V23.4385H136.46V47.0005H128.228V43.7245C127.584 44.8165 126.66 45.6845 125.456 46.3285C124.28 46.9725 122.894 47.2945 121.298 47.2945C119.422 47.2945 117.714 46.8045 116.174 45.8245C114.662 44.8445 113.458 43.4445 112.562 41.6245C111.694 39.7765 111.26 37.6345 111.26 35.1985ZM128.228 35.1985C128.228 33.6865 127.808 32.4965 126.968 31.6285C126.156 30.7605 125.148 30.3265 123.944 30.3265C122.712 30.3265 121.69 30.7605 120.878 31.6285C120.066 32.4685 119.66 33.6585 119.66 35.1985C119.66 36.7105 120.066 37.9145 120.878 38.8105C121.69 39.6785 122.712 40.1125 123.944 40.1125C125.148 40.1125 126.156 39.6785 126.968 38.8105C127.808 37.9425 128.228 36.7385 128.228 35.1985ZM149.383 27.5965C150.307 26.2525 151.427 25.1885 152.743 24.4045C154.059 23.6205 155.473 23.2285 156.985 23.2285V32.0065H154.675C152.883 32.0065 151.553 32.3565 150.685 33.0565C149.817 33.7565 149.383 34.9745 149.383 36.7105V47.0005H141.151V23.4385H149.383V27.5965ZM164.094 21.2545C162.638 21.2545 161.462 20.8625 160.566 20.0785C159.698 19.2665 159.264 18.2585 159.264 17.0545C159.264 15.8225 159.698 14.8005 160.566 13.9885C161.462 13.1765 162.638 12.7705 164.094 12.7705C165.522 12.7705 166.67 13.1765 167.538 13.9885C168.434 14.8005 168.882 15.8225 168.882 17.0545C168.882 18.2585 168.434 19.2665 167.538 20.0785C166.67 20.8625 165.522 21.2545 164.094 21.2545ZM168.168 23.4385V47.0005H159.936V23.4385H168.168ZM171.512 35.1985C171.512 32.7625 172.016 30.6345 173.024 28.8145C174.032 26.9945 175.432 25.5945 177.224 24.6145C179.044 23.6345 181.116 23.1445 183.44 23.1445C186.436 23.1445 188.956 23.9705 191 25.6225C193.044 27.2465 194.36 29.5285 194.948 32.4685H186.212C185.708 30.9285 184.728 30.1585 183.272 30.1585C182.236 30.1585 181.41 30.5925 180.794 31.4605C180.206 32.3005 179.912 33.5465 179.912 35.1985C179.912 36.8505 180.206 38.1105 180.794 38.9785C181.41 39.8465 182.236 40.2805 183.272 40.2805C184.756 40.2805 185.736 39.5105 186.212 37.9705H194.948C194.36 40.8825 193.044 43.1645 191 44.8165C188.956 46.4685 186.436 47.2945 183.44 47.2945C181.116 47.2945 179.044 46.8045 177.224 45.8245C175.432 44.8445 174.032 43.4445 173.024 41.6245C172.016 39.8045 171.512 37.6625 171.512 35.1985ZM209.33 47.2945C206.978 47.2945 204.864 46.8045 202.988 45.8245C201.14 44.8445 199.684 43.4445 198.62 41.6245C197.556 39.8045 197.024 37.6625 197.024 35.1985C197.024 32.7625 197.556 30.6345 198.62 28.8145C199.712 26.9945 201.182 25.5945 203.03 24.6145C204.906 23.6345 207.02 23.1445 209.372 23.1445C211.724 23.1445 213.824 23.6345 215.672 24.6145C217.548 25.5945 219.018 26.9945 220.082 28.8145C221.174 30.6345 221.72 32.7625 221.72 35.1985C221.72 37.6345 221.174 39.7765 220.082 41.6245C219.018 43.4445 217.548 44.8445 215.672 45.8245C213.796 46.8045 211.682 47.2945 209.33 47.2945ZM209.33 40.1545C210.478 40.1545 211.43 39.7345 212.186 38.8945C212.97 38.0265 213.362 36.7945 213.362 35.1985C213.362 33.6025 212.97 32.3845 212.186 31.5445C211.43 30.7045 210.492 30.2845 209.372 30.2845C208.252 30.2845 207.314 30.7045 206.558 31.5445C205.802 32.3845 205.424 33.6025 205.424 35.1985C205.424 36.8225 205.788 38.0545 206.516 38.8945C207.244 39.7345 208.182 40.1545 209.33 40.1545Z" fill="white"/>
<path fill-rule="evenodd" clip-rule="evenodd" d="M0 39.4995V52.5371H11.292V50.6924L0 39.4995Z" fill="#326CF9"/>
<path fill-rule="evenodd" clip-rule="evenodd" d="M35.884 52.5396H47.176V39.5015L35.887 50.6953L35.884 52.5396Z" fill="#326CF9"/>
<path fill-rule="evenodd" clip-rule="evenodd" d="M47.176 0.274414L23.638 28.0273L0 0.15625V24.1392L23.638 52.0122L47.172 24.2622L47.176 0.274414Z" fill="#326CF9"/>
</svg>
